<svg xmlns="http://www.w3.org/2000/svg" width="540" height="150" viewBox="0 0 540 150">
  <g id="YODAE-logo" transform="translate(-2619 -2419)">
    <rect id="Rectangle_104" data-name="Rectangle 104" width="540" height="150" rx="75" transform="translate(2619 2419)" fill="#fff"/>
    <g id="Group_9" data-name="Group 9" transform="translate(2 -2)">
      <g id="Group_8" data-name="Group 8" transform="translate(2480.517 3185.042)">
        <path id="Path_50" data-name="Path 50" d="M440.97-528.573l-8.77-8.655a39.483,39.483,0,0,0-3.552-55.234,45.147,45.147,0,0,1-43.369,57.454c-.575,0,2.9.02-10.778-.064a39.328,39.328,0,0,0,27.84,11.5l36.668-.187A2.815,2.815,0,0,0,440.97-528.573Z" transform="translate(-124.326 -117.471)" fill="#624ce0"/>
        <path id="Path_51" data-name="Path 51" d="M300.419-697.573a39.512,39.512,0,0,0-39.467-39.469,39.512,39.512,0,0,0-39.467,39.469,39.179,39.179,0,0,0,9.607,25.812l-8.77,8.655a2.815,2.815,0,0,0,1.962,4.814l36.668.187A39.512,39.512,0,0,0,300.419-697.573Zm-24.33-8.718a2.179,2.179,0,0,1,2.179-2.18,2.179,2.179,0,0,1,2.179,2.18v17.435a2.179,2.179,0,0,1-2.179,2.179,2.179,2.179,0,0,1-2.179-2.179Zm-8.718,4.359a2.179,2.179,0,0,1,2.18-2.179,2.179,2.179,0,0,1,2.179,2.179v8.718a2.179,2.179,0,0,1-2.179,2.179,2.179,2.179,0,0,1-2.18-2.179ZM245.7-693.215a2.179,2.179,0,0,1-2.18,2.179,2.179,2.179,0,0,1-2.179-2.179v-8.718a2.179,2.179,0,0,1,2.179-2.179,2.179,2.179,0,0,1,2.18,2.179Zm8.6,13.077a2.179,2.179,0,0,1-2.179,2.179,2.179,2.179,0,0,1-2.179-2.179v-34.87a2.179,2.179,0,0,1,2.179-2.18,2.179,2.179,0,0,1,2.179,2.18Zm4.359-4.359V-710.65a2.179,2.179,0,0,1,2.179-2.179,2.179,2.179,0,0,1,2.18,2.179V-684.5a2.179,2.179,0,0,1-2.18,2.179A2.179,2.179,0,0,1,258.654-684.5Z" transform="translate(0 0)" fill="#2329d6"/>
      </g>
      <text id="YODAE" transform="translate(2814 2524)" font-size="74" font-family="IBMPlexMono-SemiBold, IBM Plex Mono" font-weight="600" letter-spacing="0.12em"><tspan x="0" y="0">YODAE</tspan></text>
    </g>
  </g>
</svg>
