<svg xmlns="http://www.w3.org/2000/svg" width="81.601" height="81.601" viewBox="0 0 81.601 81.601">
  <g id="Group_8" data-name="Group 8" transform="translate(-221.484 737.042)">
    <path id="Path_50" data-name="Path 50" d="M431-538.156l-7.455-7.357a33.561,33.561,0,0,0-3.019-46.95,38.375,38.375,0,0,1-36.864,48.836c-.489,0,2.462.017-9.162-.055a33.429,33.429,0,0,0,23.664,9.776l31.168-.159A2.393,2.393,0,0,0,431-538.156Z" transform="translate(-128.629 -121.537)" fill="#624ce0"/>
    <path id="Path_51" data-name="Path 51" d="M288.579-703.493a33.586,33.586,0,0,0-33.547-33.549,33.586,33.586,0,0,0-33.547,33.549,33.3,33.3,0,0,0,8.166,21.94L222.2-674.2a2.393,2.393,0,0,0,1.668,4.092l31.168.159A33.586,33.586,0,0,0,288.579-703.493ZM267.9-710.9a1.853,1.853,0,0,1,1.852-1.853A1.853,1.853,0,0,1,271.6-710.9v14.82a1.852,1.852,0,0,1-1.852,1.852,1.852,1.852,0,0,1-1.852-1.852Zm-7.41,3.7a1.853,1.853,0,0,1,1.853-1.852,1.852,1.852,0,0,1,1.852,1.852v7.41a1.853,1.853,0,0,1-1.852,1.853,1.853,1.853,0,0,1-1.853-1.853Zm-18.424,7.41a1.853,1.853,0,0,1-1.853,1.853,1.852,1.852,0,0,1-1.852-1.853v-7.41a1.852,1.852,0,0,1,1.852-1.852,1.853,1.853,0,0,1,1.853,1.852Zm7.309,11.115a1.852,1.852,0,0,1-1.852,1.852,1.852,1.852,0,0,1-1.852-1.852v-29.64a1.853,1.853,0,0,1,1.852-1.853,1.852,1.852,0,0,1,1.852,1.853Zm3.705-3.705v-22.23a1.852,1.852,0,0,1,1.852-1.852,1.852,1.852,0,0,1,1.853,1.852v22.23a1.853,1.853,0,0,1-1.853,1.852A1.852,1.852,0,0,1,253.078-692.378Z" fill="#2329d6"/>
  </g>
</svg>
