<svg xmlns="http://www.w3.org/2000/svg" width="135" height="39.82" viewBox="0 0 135 39.82">
  <g id="logo-nav" transform="translate(-161 -49)">
    <text id="YODAE" transform="translate(212 79)" fill="#2329d6" font-size="28" font-family="IBMPlexMono-SemiBold, IBM Plex Mono" font-weight="600"><tspan x="0" y="0">YODAE</tspan></text>
    <g id="Group_8" data-name="Group 8" transform="translate(-60.484 786.042)">
      <path id="Path_50" data-name="Path 50" d="M402.071-565.961l-3.638-3.59a16.377,16.377,0,0,0-1.473-22.911,18.727,18.727,0,0,1-17.989,23.832c-.239,0,1.2.008-4.471-.027a16.313,16.313,0,0,0,11.548,4.771l15.21-.078A1.168,1.168,0,0,0,402.071-565.961Z" transform="translate(-141.115 -133.335)" fill="#624ce0"/>
      <path id="Path_51" data-name="Path 51" d="M254.226-720.671a16.39,16.39,0,0,0-16.371-16.371,16.389,16.389,0,0,0-16.371,16.371,16.251,16.251,0,0,0,3.985,10.707l-3.638,3.59a1.168,1.168,0,0,0,.814,2l15.21.078A16.39,16.39,0,0,0,254.226-720.671Zm-10.092-3.616a.9.9,0,0,1,.9-.9.9.9,0,0,1,.9.9v7.232a.9.9,0,0,1-.9.9.9.9,0,0,1-.9-.9Zm-3.616,1.808a.9.9,0,0,1,.9-.9.9.9,0,0,1,.9.9v3.616a.9.9,0,0,1-.9.9.9.9,0,0,1-.9-.9Zm-8.991,3.616a.9.9,0,0,1-.9.9.9.9,0,0,1-.9-.9v-3.616a.9.9,0,0,1,.9-.9.9.9,0,0,1,.9.9Zm3.567,5.424a.9.9,0,0,1-.9.9.9.9,0,0,1-.9-.9V-727.9a.9.9,0,0,1,.9-.9.9.9,0,0,1,.9.9Zm1.808-1.808v-10.848a.9.9,0,0,1,.9-.9.9.9,0,0,1,.9.9v10.848a.9.9,0,0,1-.9.9A.9.9,0,0,1,236.9-715.247Z" transform="translate(0 0)" fill="#2329d6"/>
    </g>
  </g>
</svg>
