<svg xmlns="http://www.w3.org/2000/svg" width="67.943" height="60.854" viewBox="0 0 67.943 60.854">
  <g id="doodle-airplane" transform="translate(-1509.406 -414.111)">
    <path id="Path_56" data-name="Path 56" d="M13432.869,476.322s-19.2-2.1-19.928-8,11.684-9.368,11.684-9.368a78.543,78.543,0,0,1,16.186,0c7.191.991,18.3,2.7,18.3,2.7h9.1s-.791-8.372,1.915-9.387,9.124,10.086,7.389,14.085a6.121,6.121,0,0,1-1.938-1.038c-1.448-1.036-3.443-2.967-3.455-4.756" transform="translate(-11902.001 -24.074)" fill="none" stroke="#2329d6" stroke-linecap="round" stroke-linejoin="bevel" stroke-width="3"/>
    <path id="Path_57" data-name="Path 57" d="M13551.162,490.205s-4.3,10.684-9.055,13.013c-.285.212-13.34-.449-13.34-.449" transform="translate(-11978.236 -49.083)" fill="none" stroke="#2329d6" stroke-linecap="round" stroke-linejoin="bevel" stroke-width="3"/>
    <path id="Path_58" data-name="Path 58" d="M13492.815,512.927l-.343,14.153s-1.934,7.876-5.1,8.972-8.054-6.446-9.019-9.906-3.021-5.854-4.221-15.235" transform="translate(-11942.284 -62.708)" fill="none" stroke="#2329d6" stroke-linecap="round" stroke-linejoin="bevel" stroke-width="3"/>
    <path id="Path_59" data-name="Path 59" d="M13474.131,437.464v-5.956s6.526-12.9,12.313-15.483c2.019-.741,4.82-.317,4.865,0s2.321-.705,3.146,17.009" transform="translate(-11942.284 0)" fill="none" stroke="#2329d6" stroke-linecap="round" stroke-linejoin="bevel" stroke-width="3"/>
  </g>
</svg>
