<svg xmlns="http://www.w3.org/2000/svg" width="68.353" height="68.563" viewBox="0 0 68.353 68.563">
  <g id="icon-audio" transform="translate(-2359 -2455.2)">
    <path id="Path_42" data-name="Path 42" d="M135.617,377.444V362.208a3.809,3.809,0,1,0-7.618,0v15.236a3.809,3.809,0,1,0,7.618,0Zm0,0" transform="translate(2231 2119.655)" fill="#2329d6"/>
    <path id="Path_45" data-name="Path 45" d="M374.551,377.444V362.208a3.809,3.809,0,1,0-7.618,0v15.236a3.809,3.809,0,1,0,7.618,0Zm0,0" transform="translate(2037.566 2119.655)" fill="#2329d6"/>
    <path id="Path_47" data-name="Path 47" d="M408.684,375.613V345.142a3.809,3.809,0,1,0-7.618,0v30.471a3.809,3.809,0,1,0,7.618,0Zm0,0" transform="translate(2018.669 2129.103)" fill="#2329d6"/>
    <path id="Path_48" data-name="Path 48" d="M340.418,373.783V328.076a3.809,3.809,0,1,0-7.618,0v45.707a3.809,3.809,0,1,0,7.618,0Zm0,0" transform="translate(2056.463 2138.552)" fill="#2329d6"/>
    <path id="Path_49" data-name="Path 49" d="M306.285,371.952V311.01a3.809,3.809,0,1,0-7.618,0v60.943a3.809,3.809,0,1,0,7.618,0Zm0,0" transform="translate(2075.36 2148)" fill="#2329d6"/>
  </g>
</svg>
