<svg xmlns="http://www.w3.org/2000/svg" xmlns:xlink="http://www.w3.org/1999/xlink" width="1920" height="1080" viewBox="0 0 1920 1080">
  <defs>
    <clipPath id="clip-Web_1920_1">
      <rect width="1920" height="1080"/>
    </clipPath>
  </defs>
  <g id="Web_1920_1" data-name="Web 1920 – 1" clip-path="url(#clip-Web_1920_1)">
    <rect width="1920" height="1080" fill="#fff"/>
    <g id="doodle-apple" transform="translate(-12023.578 2762.958) rotate(-8)">
      <path id="Union_1" data-name="Union 1" d="M82.035,184.884S60.413,216.694,41.3,205.175c-7.267-4.377-11.32-6.813-14.326-12.016-6.018-10.342-9.964-29.221-23.508-80.851C-15.957,38.254,51.844,53.462,67.1,57.737l.165-.2C57.98,48.406,38.423,27.965,38.423,27.965L50.538,20.2,59.19,40.06l8.172,17.361C120.6-5.6,161.973,48.179,161.855,70.892c-1.131,28.1-7.3,108.627-30.773,130.56-5.2,4.863-10.509,6.755-15.619,6.754C97.528,208.2,82.035,184.884,82.035,184.884ZM67.42,47.292S60.38,31.277,65,19.455,85.888,0,85.888,0C87.4.045,98.1,33.905,81.9,42.217c-9.112,4.672-12.555,5.7-13.823,5.7C67.087,47.913,67.42,47.292,67.42,47.292Z" transform="translate(12565.968 -453.368)" fill="none" stroke="#afb9b9" stroke-width="5"/>
    </g>
    <g id="doodle-airplane" transform="translate(-91.449 -62)">
      <path id="Path_56" data-name="Path 56" d="M13490.2,545.616s-74.334-8.135-77.17-30.974,45.25-36.278,45.25-36.278,34.828-3.839,62.674,0,70.859,10.437,70.859,10.437h35.227s-3.066-32.42,7.414-36.349,35.332,39.059,28.613,54.544c-.619-.1-3.342-1.037-7.506-4.018-5.607-4.013-13.338-11.489-13.381-18.419" transform="translate(-11902 11.866)" fill="none" stroke="#afb9b9" stroke-linecap="round" stroke-linejoin="bevel" stroke-width="5"/>
      <path id="Path_57" data-name="Path 57" d="M13615.486,490.205s-16.662,41.375-35.059,50.392c-1.105.821-51.66-1.738-51.66-1.738" transform="translate(-11864.423 24.192)" fill="none" stroke="#afb9b9" stroke-linecap="round" stroke-linejoin="bevel" stroke-width="5"/>
      <path id="Path_58" data-name="Path 58" d="M13546.488,518.719l-1.328,54.807s-7.488,30.5-19.76,34.745-31.189-24.962-34.924-38.361-11.7-22.67-16.346-59" transform="translate(-11882.145 30.908)" fill="none" stroke="#afb9b9" stroke-linecap="round" stroke-linejoin="bevel" stroke-width="5"/>
      <path id="Path_59" data-name="Path 59" d="M13474.131,500.229V477.164s25.273-49.948,47.686-59.957c7.813-2.869,18.664-1.228,18.842,0s8.99-2.731,12.178,65.866" transform="translate(-11882.145 0)" fill="none" stroke="#afb9b9" stroke-linecap="round" stroke-linejoin="bevel" stroke-width="5"/>
    </g>
    <g id="doodle-cup" transform="translate(-11939 1674.348)">
      <path id="Path_60" data-name="Path 60" d="M13381.6-841.227c-1.133,4.652-30.406,50.943-84.555,19.907-2.123-1.641,22.27-37.2,84.555-19.907" transform="translate(0.003 0)" fill="none" stroke="#afb9b9" stroke-linecap="round" stroke-width="5"/>
      <path id="Path_61" data-name="Path 61" d="M13296.918-822.744l13.258,73.881s37.566,35.891,81.971,0c.4-2.213-10.555-92.432-10.555-92.432" transform="translate(0 3.128)" fill="none" stroke="#afb9b9" stroke-linecap="round" stroke-width="5"/>
      <path id="Path_62" data-name="Path 62" d="M13351.271-824.55s29.582-16.325,32.256,17.493c-.586,15.84,1.352,33.094-26.611,28.527-.092-.309,0-12.169,0-12.169s14.936,3.083,13.27-16.358c-5.529-16.743-16.525-4.289-16.525-4.289Z" transform="translate(36.474 11.721)" fill="none" stroke="#afb9b9" stroke-linecap="round" stroke-width="5"/>
    </g>
    <g id="doodle-pizza" transform="translate(-12883.848 1824.397)">
      <path id="Path_63" data-name="Path 63" d="M13087.6-1470.553c-1.158,7.631,2.994,11,2.994,11s55.809-7.039,79.369,8.236c.453,1.437,9.887-10.984,9.887-10.984a151.5,151.5,0,0,0-41.736-13.321C13114.9-1479.328,13088.182-1474.407,13087.6-1470.553Z" transform="translate(0 0)" fill="none" stroke="#afb9b9" stroke-linecap="round" stroke-linejoin="bevel" stroke-width="5"/>
      <path id="Path_64" data-name="Path 64" d="M13093.133-1464.721s1.217,58.514,17.893,107c.631,1.733,20.309-40.222,31.412-47.359s24.586-49.689,24.588-51.356" transform="translate(2.572 5.474)" fill="none" stroke="#afb9b9" stroke-linecap="round" stroke-width="5"/>
      <g id="Ellipse_5" data-name="Ellipse 5" transform="translate(13133 -1445.397)" fill="none" stroke="#afb9b9" stroke-width="4">
        <circle cx="9.5" cy="9.5" r="9.5" stroke="none"/>
        <circle cx="9.5" cy="9.5" r="7.5" fill="none"/>
      </g>
      <g id="Ellipse_6" data-name="Ellipse 6" transform="translate(13098 -1449.397)" fill="none" stroke="#afb9b9" stroke-width="4">
        <circle cx="9.5" cy="9.5" r="9.5" stroke="none"/>
        <circle cx="9.5" cy="9.5" r="7.5" fill="none"/>
      </g>
      <g id="Ellipse_7" data-name="Ellipse 7" transform="translate(13111 -1420.397)" fill="none" stroke="#afb9b9" stroke-width="4">
        <ellipse cx="7.5" cy="7" rx="7.5" ry="7" stroke="none"/>
        <ellipse cx="7.5" cy="7" rx="5.5" ry="5" fill="none"/>
      </g>
      <g id="Ellipse_8" data-name="Ellipse 8" transform="translate(13111 -1397.397)" fill="none" stroke="#afb9b9" stroke-width="4">
        <circle cx="9.5" cy="9.5" r="9.5" stroke="none"/>
        <circle cx="9.5" cy="9.5" r="7.5" fill="none"/>
      </g>
    </g>
  </g>
</svg>
