<svg xmlns="http://www.w3.org/2000/svg" width="100" height="100.002" viewBox="0 0 100 100.002">
  <g id="Group_5" data-name="Group 5" transform="translate(466.372 119.429)">
    <path id="Path_15" data-name="Path 15" d="M-416.371-119.429a50.452,50.452,0,0,0-5.105.259,50.007,50.007,0,0,0-44.9,49.743c0,.734.019,1.464.051,2.191,0,.033,0,.065,0,.1.014.3.031.608.05.911.006.1.012.2.019.3q.027.4.062.8.018.217.039.432.032.345.069.69c.021.192.043.384.066.575s.044.371.068.556q.053.406.113.81c.016.107.03.215.047.322.075.487.16.972.249,1.455q.05.272.1.543.1.518.215,1.032c.074.34.152.679.233,1.017.045.187.09.374.137.56a49.424,49.424,0,0,0,7.739,16.707l.052.071q.5.7,1.029,1.384.205.267.414.532c.145.183.289.365.436.546q.425.523.865,1.033c.038.045.074.091.113.135l-11.11,10.965a3.566,3.566,0,0,0,2.486,6.1l46.452.237A50.262,50.262,0,0,0-411-19.715a50.005,50.005,0,0,0,44.632-49.712A50.056,50.056,0,0,0-416.371-119.429Zm21.427,73.215H-437.8a1.785,1.785,0,0,1-1.266-.535,1.783,1.783,0,0,1-.336-.5c-.022-.043-.04-.084-.058-.128a1.8,1.8,0,0,1-.126-.595V-48c0-.024.012-.041.012-.065a1.814,1.814,0,0,1,.025-.305l2.706-12.807a1.733,1.733,0,0,1,.073-.206c.018-.05.032-.1.053-.148a1.822,1.822,0,0,1,.342-.518l.017-.021L-411.1-87.322l2.524-2.525a8.929,8.929,0,0,1,12.6.028,8.929,8.929,0,0,1,.028,12.6l-2.525,2.524-24.911,24.911h28.445A1.786,1.786,0,0,1-393.158-48,1.786,1.786,0,0,1-394.944-46.214Z" transform="translate(0)" fill="#2329d6"/>
    <path id="Path_16" data-name="Path 16" d="M-339.867-9.458l-3.787-3.788L-366.383,9.482l3.787,3.789,3.788,3.787,22.729-22.729Z" transform="translate(-66.188 -70.288)" fill="#2329d6"/>
    <path id="Path_17" data-name="Path 17" d="M-282.843-19.846a5.358,5.358,0,0,0,0-7.577,5.492,5.492,0,0,0-7.577,0l-1.263,1.264,7.576,7.575Z" transform="translate(-115.634 -59.899)" fill="#2329d6"/>
    <path id="Path_18" data-name="Path 18" d="M-373.553,64.609l-1.457,6.9,6.9-1.457-2.721-2.722Z" transform="translate(-60.476 -121.822)" fill="#2329d6"/>
  </g>
</svg>
